<?xml version="1.0" encoding="utf-8"?>
<!-- Generator: Adobe Illustrator 23.0.1, SVG Export Plug-In . SVG Version: 6.00 Build 0)  -->
<svg version="1.1" id="Слой_1" xmlns="http://www.w3.org/2000/svg" xmlns:xlink="http://www.w3.org/1999/xlink" x="0px" y="0px"
	 viewBox="0 0 252 92" style="enable-background:new 0 0 252 92;" xml:space="preserve">
<style type="text/css">
	.st0{fill-rule:evenodd;clip-rule:evenodd;}
	.st1{fill:#ffd51c;}
</style>
<path class="st0" d="M83.2,28.3l-2.9,0.1l-3.1,6.7c-1.7,3.7-4.1,9-5.4,11.7c-9.7,20.7-19.7,42.8-19.7,43.6v1l6.8-0.1l6.8-0.1
	l2.3-5.1l2.3-5.1l12.9,0l12.9,0l2.4,5.2l2.4,5.2h6.9c6.5,0,6.9,0,6.9-0.8c0-0.4-4.6-10.8-10.3-23.1c-5.7-12.3-12-26-14-30.4
	c-2-4.5-3.9-8.3-4.2-8.5C86.3,28.3,84.8,28.2,83.2,28.3z M0,60.1v31.4l17.4-0.1c16.9-0.1,17.4-0.2,19.7-1.1
	c5.1-2.1,8.5-5.4,10.3-9.9c0.8-2,0.9-3.2,0.9-7.2c0-4.1-0.1-5.1-0.9-6.7c-1.1-2.5-3.9-5.5-6-6.6L39.8,59l1.7-1.4
	c2-1.8,4-5.7,4.4-8.6c0.4-3-0.4-7.5-1.9-10.5c-1.4-2.9-4.3-5.8-7.3-7.4c-4.1-2.1-6-2.3-21.9-2.3L0,28.8V60.1z M121.2,50.9
	c0,24.3,0.1,25.2,2.5,29.8c2.5,4.8,8.4,9.1,14.6,10.6c3.8,0.9,11.7,0.9,15.5,0c6-1.5,12-5.9,14.4-10.6c2.3-4.5,2.3-5,2.3-29.4V28.8
	h-6.3h-6.3l-0.1,21.9c-0.1,20-0.2,22-0.9,23.6c-1.8,4-5.5,6.2-10.8,6.2c-5,0-8.5-1.9-10.6-5.8c-0.9-1.6-0.9-2-1-23.8l-0.1-22.1h-6.6
	h-6.6L121.2,50.9z M184.5,60.1v31.3h6.6h6.6l0.1-11.1l0.1-11.1l11.2-0.1l11.2-0.1v-5.8v-5.8h-11.3h-11.3v-8.5v-8.5h12.5h12.5v-5.8
	v-5.8h-19.1h-19.1V60.1z M29.8,41.4c2.3,1.7,2.8,2.9,2.8,6c0,3.1-0.6,4.3-2.8,6c-1,0.8-1.8,0.9-8.9,1l-7.8,0.1v-7.1v-7.1l7.8,0.1
	C28,40.6,28.8,40.7,29.8,41.4z M87.7,59.2c2.2,5.3,4.1,9.9,4.2,10.2c0.2,0.4-1.7,0.5-8.3,0.5c-8.3,0-8.5,0-8.3-0.8
	c0.4-1.6,7.9-19.5,8.2-19.5C83.6,49.5,85.5,53.9,87.7,59.2z M31.9,66.2c2.3,1.3,3.2,3,3.2,6.4c0,3.2-0.5,4.4-2.8,6.1
	c-1.1,0.8-1.8,0.9-10.1,1l-9,0.1v-7c0-3.9,0.1-7.2,0.3-7.3c0.2-0.2,4.1-0.2,8.7-0.2C29.2,65.5,30.8,65.6,31.9,66.2z"/>
<path class="st1" d="M180.7,0l-1.1,1.4l22.8,23h24.6v24.9L249.9,72l1.5-1.7V0H180.7z"/>
</svg>
