<svg width="980" height="360" viewBox="0 0 980 360" fill="none" xmlns="http://www.w3.org/2000/svg" role="img" aria-labelledby="logoTitle logoDesc">
  <title id="logoTitle">Pro Remont Antalya — Проверенные мастера</title>
  <desc id="logoDesc">Обновлённый логотип Pro Remont Antalya: рука с чемоданом инструментов, синий и оранжевый фирменные цвета.</desc>
  <defs>
    <linearGradient id="navyGrad" x1="0" y1="0" x2="1" y2="1">
      <stop offset="0%" stop-color="#062B5E"/>
      <stop offset="100%" stop-color="#0A3F86"/>
    </linearGradient>
  </defs>

  <circle cx="175" cy="145" r="132" stroke="url(#navyGrad)" stroke-width="10"/>

  <rect x="92" y="171" width="166" height="92" rx="14" fill="url(#navyGrad)"/>
  <rect x="84" y="162" width="182" height="24" rx="8" fill="#0A3F86"/>
  <rect x="112" y="112" width="126" height="60" rx="8" fill="#ffffff" stroke="#0A3F86" stroke-width="5"/>
  <path d="M127 112V98c0-14 11-25 25-25h47c14 0 25 11 25 25v14" stroke="#0A3F86" stroke-width="10" stroke-linecap="round"/>

  <rect x="111" y="184" width="16" height="13" rx="3" fill="#FF7A00"/>
  <rect x="223" y="184" width="16" height="13" rx="3" fill="#FF7A00"/>

  <path d="M173 205l14 14 29-29" stroke="#FF7A00" stroke-width="10" stroke-linecap="round" stroke-linejoin="round"/>

  <path d="M130 150l-12-24" stroke="#0A3F86" stroke-width="8" stroke-linecap="round"/>
  <path d="M142 126l-24 0" stroke="#0A3F86" stroke-width="8" stroke-linecap="round"/>
  <rect x="162" y="131" width="10" height="22" rx="2" fill="#FF7A00"/>
  <rect x="189" y="126" width="9" height="26" rx="4" fill="#0A3F86"/>
  <circle cx="193.5" cy="140" r="3" fill="#ffffff"/>
  <path d="M210 129h16" stroke="#FF7A00" stroke-width="8" stroke-linecap="round"/>
  <circle cx="230" cy="140" r="7" stroke="#0A3F86" stroke-width="5" fill="none"/>

  <path d="M147 64c14 0 18 12 18 19v18h-36V83c0-7 4-19 18-19z" fill="#ffffff" stroke="#0A3F86" stroke-width="4"/>
  <circle cx="147" cy="54" r="13" fill="#0A3F86"/>
  <line x1="147" y1="54" x2="147" y2="46" stroke="#FF7A00" stroke-width="2" stroke-linecap="round"/>
  <line x1="147" y1="54" x2="153" y2="51" stroke="#FF7A00" stroke-width="2" stroke-linecap="round"/>

  <text x="340" y="164" font-family="Montserrat, Segoe UI, Arial, sans-serif" font-size="92" font-weight="800" fill="#0A3F86">Pro</text>
  <text x="530" y="137" font-family="Montserrat, Segoe UI, Arial, sans-serif" font-size="86" font-weight="800" fill="#FF7A00">Remont</text>
  <text x="530" y="220" font-family="Montserrat, Segoe UI, Arial, sans-serif" font-size="86" font-weight="800" fill="#FF7A00">Antalya</text>
  <text x="340" y="292" font-family="Montserrat, Segoe UI, Arial, sans-serif" font-size="56" font-weight="700" fill="#0A3F86">Проверенные мастера</text>
</svg>
